<mxfile host="app.diagrams.net" modified="2022-03-22T04:38:18.530Z" agent="5.0 (Macintosh; Intel Mac OS X 10_15_7) AppleWebKit/537.36 (KHTML, like Gecko) Chrome/99.0.4844.74 Safari/537.36" etag="DzpvDujuUZIjInvH3GpO" version="17.1.3" type="github">
  <diagram id="LbNndVN55RRchBTATLmV" name="Page-1">
    <mxGraphModel dx="2893" dy="1161" grid="1" gridSize="10" guides="1" tooltips="1" connect="1" arrows="1" fold="1" page="1" pageScale="1" pageWidth="827" pageHeight="1169" math="0" shadow="0">
      <root>
        <mxCell id="0" />
        <mxCell id="1" parent="0" />
        <mxCell id="vsGRGXz0Xs2UJGAKEiOz-2" value="https" style="ellipse;whiteSpace=wrap;html=1;align=center;newEdgeStyle={&quot;edgeStyle&quot;:&quot;entityRelationEdgeStyle&quot;,&quot;startArrow&quot;:&quot;none&quot;,&quot;endArrow&quot;:&quot;none&quot;,&quot;segment&quot;:10,&quot;curved&quot;:1};treeFolding=1;treeMoving=1;" vertex="1" parent="1">
          <mxGeometry x="-59" y="512" width="120" height="60" as="geometry" />
        </mxCell>
        <mxCell id="vsGRGXz0Xs2UJGAKEiOz-24" value="TLS communication" style="whiteSpace=wrap;html=1;rounded=1;arcSize=50;align=center;verticalAlign=middle;strokeWidth=1;autosize=1;spacing=4;treeFolding=1;treeMoving=1;newEdgeStyle={&quot;edgeStyle&quot;:&quot;entityRelationEdgeStyle&quot;,&quot;startArrow&quot;:&quot;none&quot;,&quot;endArrow&quot;:&quot;none&quot;,&quot;segment&quot;:10,&quot;curved&quot;:1};" vertex="1" parent="1">
          <mxGeometry x="107" y="467" width="148" height="40" as="geometry" />
        </mxCell>
        <mxCell id="vsGRGXz0Xs2UJGAKEiOz-25" value="" style="edgeStyle=entityRelationEdgeStyle;startArrow=none;endArrow=none;segment=10;curved=1;rounded=0;exitX=1;exitY=0.5;exitDx=0;exitDy=0;" edge="1" target="vsGRGXz0Xs2UJGAKEiOz-24" parent="1" source="vsGRGXz0Xs2UJGAKEiOz-2">
          <mxGeometry relative="1" as="geometry">
            <mxPoint x="75" y="552" as="sourcePoint" />
          </mxGeometry>
        </mxCell>
        <mxCell id="vsGRGXz0Xs2UJGAKEiOz-26" value="https pinning" style="whiteSpace=wrap;html=1;rounded=1;arcSize=50;align=center;verticalAlign=middle;strokeWidth=1;autosize=1;spacing=4;treeFolding=1;treeMoving=1;newEdgeStyle={&quot;edgeStyle&quot;:&quot;entityRelationEdgeStyle&quot;,&quot;startArrow&quot;:&quot;none&quot;,&quot;endArrow&quot;:&quot;none&quot;,&quot;segment&quot;:10,&quot;curved&quot;:1};" vertex="1" parent="1">
          <mxGeometry x="115" y="582" width="140" height="40" as="geometry" />
        </mxCell>
        <mxCell id="vsGRGXz0Xs2UJGAKEiOz-27" value="" style="edgeStyle=entityRelationEdgeStyle;startArrow=none;endArrow=none;segment=10;curved=1;rounded=0;exitX=1.017;exitY=0.629;exitDx=0;exitDy=0;exitPerimeter=0;" edge="1" target="vsGRGXz0Xs2UJGAKEiOz-26" parent="1" source="vsGRGXz0Xs2UJGAKEiOz-2">
          <mxGeometry relative="1" as="geometry">
            <mxPoint x="115" y="622" as="sourcePoint" />
          </mxGeometry>
        </mxCell>
        <mxCell id="vsGRGXz0Xs2UJGAKEiOz-28" value="certificates &amp;amp; certificate chains&lt;br&gt;" style="whiteSpace=wrap;html=1;rounded=1;arcSize=50;align=center;verticalAlign=middle;strokeWidth=1;autosize=1;spacing=4;treeFolding=1;treeMoving=1;newEdgeStyle={&quot;edgeStyle&quot;:&quot;entityRelationEdgeStyle&quot;,&quot;startArrow&quot;:&quot;none&quot;,&quot;endArrow&quot;:&quot;none&quot;,&quot;segment&quot;:10,&quot;curved&quot;:1};" vertex="1" collapsed="1" parent="1">
          <mxGeometry x="-330" y="450" width="200" height="40" as="geometry" />
        </mxCell>
        <mxCell id="vsGRGXz0Xs2UJGAKEiOz-29" value="" style="edgeStyle=entityRelationEdgeStyle;startArrow=none;endArrow=none;segment=10;curved=1;rounded=0;exitX=-0.008;exitY=0.633;exitDx=0;exitDy=0;exitPerimeter=0;" edge="1" target="vsGRGXz0Xs2UJGAKEiOz-28" parent="1" source="vsGRGXz0Xs2UJGAKEiOz-2">
          <mxGeometry relative="1" as="geometry">
            <mxPoint x="-215" y="582" as="sourcePoint" />
          </mxGeometry>
        </mxCell>
      </root>
    </mxGraphModel>
  </diagram>
</mxfile>
